<svg xmlns="http://www.w3.org/2000/svg" id="OBJECT" fill="#06B6D4" viewBox="1 5 30 22">

<g id="SVGRepo_bgCarrier" stroke-width="0"/>

<g id="SVGRepo_tracerCarrier" stroke-linecap="round" stroke-linejoin="round"/>

<g id="SVGRepo_iconCarrier">

<defs>

<style>.cls-1{fill:#34D399;}</style>

</defs>

<title/>

<path class="cls-1" d="M24,8H12.54L10.83,5.45A1,1,0,0,0,10,5H8A3,3,0,0,0,5,8v5a1,1,0,0,0,1,1H26a1,1,0,0,0,1-1V11A3,3,0,0,0,24,8Z"/>

<rect height="6" rx="1" ry="1" width="26" x="3" y="12"/>

<path class="cls-1" d="M30.81,16.42A1,1,0,0,0,30,16H2a1,1,0,0,0-.81.42,1,1,0,0,0-.14.9l3,9A1,1,0,0,0,5,27H27a1,1,0,0,0,.95-.68l3-9A1,1,0,0,0,30.81,16.42Z"/>

<path d="M10,24H8a1,1,0,0,1,0-2h2a1,1,0,0,1,0,2Z"/>

</g>

</svg>