<svg xmlns="http://www.w3.org/2000/svg" xml:space="preserve" style="enable-background:new 0 0 512 512" id="airplane" viewBox="6.02 6 499.97 500">
  <g id="_x30_1_Airplane">
    <g>
      <path d="M505.984,256c0,138.071-111.929,250-250,250C117.945,506,6.016,394.071,6.016,256    c0-138.071,111.929-250,249.968-250C394.055,6,505.984,117.929,505.984,256z" style="fill:#cfe3f6"/>
      <path d="m103.581 295.316-55.669 15.086c-3.491.946-7.148-.758-8.638-4.054-6.987-15.46-24.733-57.951-14.592-70.052 20.081-23.961 56.546 14.92 82.731 47.288C110.761 287.723 108.718 293.924 103.581 295.316zM285.915 269.467c-11.273-31.939 82.164-96.81 97.741-107.352 12.647-8.558 29.757-1.634 27.362 15.456-2.854 20.375-14.321 92.277-35.562 105.372C356.186 294.823 293.449 290.814 285.915 269.467z" style="fill:#ffd050"/>
      <path d="M47.35,348.45c53.384,31.501,292.552,49.303,395.587-0.997    c32.986-16.127,52.025-39.244,46.486-71.118c-3.565-13.947-14.095-25.369-32.075-34.112c-9.883-4.786-22.063-8.76-36.577-11.878    c-0.501-0.09-1.045-0.219-1.546-0.31c-9.392-11.663-19.45-20.313-29.998-26.416c-47.566-27.723-105.695-4.03-162.24,29.865    c-42.071,25.224-131.925,57.95-183.605,74.452C26.747,313.247,20.537,335.223,47.35,348.45z" style="fill:#fff"/>
      <path d="M442.938,347.438c-103.031,50.312-342.219,32.5-395.594,1    c-11.469-5.656-16.875-12.906-18.031-19.781c60.062,30.187,291.031,46.125,391.781-3.062    c32.969-16.125,52.031-39.25,46.469-71.125c-0.75-2.938-1.813-5.75-3.219-8.469c13.75,8.156,22,18.312,25.094,30.344    C494.969,308.219,475.938,331.312,442.938,347.438z" style="fill:#d8e4ea"/>
      <path d="M332.911,249.995c4.643,5.284,10.089,9.39,16.28,12.405c2.316,1.128,4.963,1.528,7.48,0.979    c26.04-5.68,45.583-17.465,62.553-33.343c-0.501-0.09,0.501,0.09,0,0c-9.392-11.663-19.45-20.313-29.998-26.416    c-14.071,12.572-30.813,22.274-50.873,28.255C330.52,234.21,327.516,243.855,332.911,249.995z" style="fill:#9bccf8"/>
      <path d="M419.219,230.031c-16.969,15.875-36.5,27.656-62.563,33.344c-2.5,0.563-5.156,0.156-7.469-0.969    c-6.187-3.031-11.625-7.125-16.281-12.406c-0.625-0.719-1.156-1.5-1.563-2.312c2.469,1.844,5.125,3.437,7.938,4.781    c2.312,1.125,4.969,1.531,7.469,1c26.031-5.688,45.594-17.469,62.562-33.344c-1.375-1.719-2.781-3.375-4.187-4.969    C410,219.437,414.688,224.375,419.219,230.031z" style="fill:#59a3e8"/>
      <rect width="25.956" height="25.956" x="287.207" y="256.95" style="fill:#9bccf8" transform="rotate(-7.886 300.074 269.843)"/>
      <rect width="25.956" height="25.956" x="239.239" y="268.949" style="fill:#9bccf8" transform="rotate(-7.886 252.121 281.835)"/>
      <rect width="25.956" height="25.956" x="194.139" y="279.319" style="fill:#9bccf8" transform="rotate(-7.886 207.037 292.2)"/>
      <rect width="25.956" height="25.956" x="148.263" y="289.807" style="fill:#9bccf8" transform="rotate(-7.886 161.176 302.684)"/>
      <path d="M340.492,341.12c14.179,40.173-103.346,121.768-122.939,135.027    c-15.907,10.764-37.428,2.055-34.416-19.441c3.59-25.627,18.013-116.065,44.73-132.536    C252.105,309.228,331.016,314.27,340.492,341.12z" style="fill:#ffd050"/>
      <path d="M217.563,476.156c-14.187,9.594-32.813,3.687-34.594-12.906c5.594,0.687,11.781-0.688,17.281-4.406    c19.281-13.062,133.437-92.344,123.5-133.125c8.375,3.938,14.5,9.063,16.75,15.406    C354.656,381.281,237.156,462.875,217.563,476.156z" style="fill:#ffaa19"/>
      <path d="M112.85,336.338l-57.677-0.259c-3.617-0.016-6.713,2.572-7.304,6.139    c-2.775,16.737-8.993,62.364,3.92,71.449c25.569,17.99,50.806-28.963,67.783-66.978    C121.742,341.83,118.172,336.362,112.85,336.338z" style="fill:#ffd050"/>
      <path d="M119.563,346.688c-16.969,38.031-42.219,84.969-67.781,66.969    c-2.469-1.719-4.219-4.781-5.437-8.719c22.969,6.781,45.094-34.125,60.563-68.625l5.937,0.031    C118.156,336.375,121.75,341.844,119.563,346.688z" style="fill:#ffaa19"/>
      <path d="M424.347,305.313c1.082,16.297,7.95,30.931,18.59,42.141    c32.986-16.127,52.025-39.244,46.486-71.118c-3.565-13.947-14.095-25.369-32.075-34.112    C436.018,255.679,422.621,279.328,424.347,305.313z" style="fill:#ffd050"/>
      <path d="M442.938,347.438c-5.281-5.563-9.625-12-12.812-19c30.437-16,47.688-38.469,42.375-69    c-1-4-2.594-7.75-4.781-11.312c11.719,7.781,18.875,17.188,21.719,28.219C494.969,308.219,475.938,331.312,442.938,347.438z" style="fill:#ffaa19"/>
      <path d="M182.853 173.553c0 9.868-7.996 17.879-17.879 17.879h-54.737c-9.882 0-17.879-8.01-17.879-17.879 0-9.882 7.996-17.879 17.879-17.879.275 0 .537 0 .812.027 0-.014 0-.014 0-.027 0-15.566 12.593-28.146 28.16-28.146 15.553 0 28.146 12.58 28.146 28.146v.165C176.109 156.995 182.853 164.483 182.853 173.553zM337.22 87.254c0 9.868-7.996 17.879-17.879 17.879h-54.737c-9.882 0-17.879-8.01-17.879-17.879 0-9.882 7.996-17.879 17.879-17.879.275 0 .537 0 .812.027 0-.014 0-.014 0-.027 0-15.566 12.593-28.146 28.16-28.146 15.553 0 28.146 12.58 28.146 28.146v.165C330.476 70.697 337.22 78.184 337.22 87.254z" style="fill:#fff"/>
      <path d="M25.213,324.284c-0.747,9.987,5.581,19.366,17.452,26.096c-3.902,27.339-5.142,58.029,6.875,66.484    c4.428,3.116,9.048,4.678,13.8,4.678c2.025,0,4.076-0.284,6.143-0.853c16.124-4.442,30.865-26.516,42.548-49.125    c24.133,4.269,52.355,7.523,82.332,9.395c-7.727,27.534-12.615,57.513-15.094,75.205c-1.501,10.719,2.28,19.762,10.373,24.808    c3.981,2.481,8.585,3.709,13.318,3.709c5.701,0,11.586-1.782,16.783-5.299c24.163-16.352,87.828-61.617,114.139-100.93    c42.755-4.68,81.959-13.424,110.771-27.489c37.738-18.451,54.095-43.784,48.555-75.595c-0.971-3.799-2.418-7.418-4.335-10.854    c-3.256-5.835-7.882-11.132-13.827-15.878c-0.743-0.593-1.512-1.174-2.296-1.75c-0.331-0.243-0.646-0.492-0.984-0.732    c-3.779-2.678-8.019-5.161-12.715-7.445c-10.187-4.933-22.791-9.032-37.59-12.209l-0.093-0.018    c-0.486-0.591-0.986-1.149-1.477-1.726c-0.565-0.665-1.126-1.339-1.699-1.986c-0.62-0.701-1.253-1.373-1.881-2.054    c-0.572-0.619-1.139-1.25-1.719-1.852c-0.652-0.679-1.317-1.327-1.978-1.984c-0.569-0.566-1.133-1.144-1.708-1.694    c-0.692-0.661-1.396-1.288-2.097-1.925c2.835-13.63,4.84-26.313,6.077-35.145c1.241-8.85-1.9-16.328-8.617-20.515    c-7.245-4.515-16.98-4.016-24.803,1.282c-8.588,5.811-23.443,16.228-39.12,28.751c-40.104,0.144-82.226,21.435-117.368,42.501    c-27.18,16.296-73.21,35.173-114.874,50.575c-31.113-38.388-52.756-55.596-70.126-55.746c-0.075,0-0.148-0.002-0.221-0.002    c-7.08,0-13.158,2.969-18.068,8.829c-10.399,12.411,1.695,46.778,13.795,73.646C29.566,311.377,25.722,317.483,25.213,324.284z     M67.408,413.155c-4.623,1.279-8.997,0.398-13.373-2.682c-7.356-5.176-8.264-31.717-2.315-67.615    c0.278-1.668,1.714-2.873,3.418-2.873c0.006,0,0.011,0,0.015,0l57.678,0.259c1.205,0.006,2.269,0.587,2.921,1.598    c0.304,0.47,0.935,1.727,0.253,3.255C109.118,360.516,88.162,407.44,67.408,413.155z M215.364,472.912    c-6.955,4.707-15.431,5.27-21.588,1.43c-5.435-3.387-7.84-9.459-6.77-17.094c7.658-54.659,22.952-117.448,42.912-129.753    c8.241-5.08,23.799-7.651,40.575-7.651c15.631,0,32.321,2.234,45.117,6.754c11.67,4.123,19.002,9.593,21.201,15.823    C347.672,373.199,265.582,438.928,215.364,472.912z M457.558,246.755c0.711,0.366,1.41,0.737,2.096,1.114    c0.895,0.491,1.798,0.978,2.65,1.485c0.966,0.576,1.872,1.174,2.782,1.771c0.791,0.519,1.597,1.032,2.345,1.566    c0.874,0.624,1.68,1.272,2.496,1.917c0.686,0.543,1.394,1.078,2.039,1.635c0.78,0.675,1.485,1.375,2.204,2.071    c0.581,0.563,1.192,1.115,1.733,1.692c0.687,0.732,1.292,1.491,1.914,2.244c0.473,0.573,0.983,1.134,1.419,1.72    c0.6,0.806,1.109,1.641,1.637,2.47c0.36,0.564,0.763,1.115,1.089,1.689c0.53,0.933,0.958,1.897,1.4,2.857    c0.23,0.5,0.51,0.984,0.715,1.49c0.601,1.48,1.105,2.988,1.5,4.527c0.297,1.707,0.515,3.394,0.662,5.062    c0.051,0.576,0.044,1.137,0.077,1.708c0.062,1.083,0.137,2.169,0.135,3.235c-0.002,0.67-0.064,1.324-0.09,1.988    c-0.038,0.949-0.057,1.903-0.147,2.838c-0.067,0.696-0.195,1.377-0.291,2.065c-0.123,0.882-0.225,1.769-0.395,2.639    c-0.137,0.702-0.334,1.389-0.501,2.083c-0.202,0.836-0.386,1.677-0.633,2.501c-0.209,0.697-0.475,1.378-0.715,2.067    c-0.28,0.801-0.544,1.606-0.867,2.396c-0.28,0.685-0.615,1.354-0.928,2.03c-0.358,0.772-0.701,1.549-1.102,2.309    c-0.353,0.671-0.758,1.328-1.144,1.99c-0.434,0.744-0.856,1.492-1.332,2.225c-0.425,0.655-0.9,1.297-1.358,1.943    c-0.511,0.719-1.012,1.441-1.564,2.148c-0.498,0.638-1.042,1.264-1.574,1.893c-0.587,0.694-1.167,1.389-1.794,2.071    c-0.57,0.62-1.184,1.228-1.788,1.839c-0.663,0.67-1.323,1.342-2.027,2.001c-0.642,0.601-1.324,1.19-1.999,1.781    c-0.74,0.648-1.479,1.295-2.26,1.931c-0.711,0.579-1.46,1.148-2.205,1.718c-0.819,0.627-1.641,1.252-2.501,1.867    c-0.781,0.558-1.596,1.107-2.41,1.655c-0.898,0.604-1.8,1.207-2.739,1.8c-0.849,0.536-1.728,1.063-2.609,1.589    c-0.98,0.584-1.967,1.167-2.988,1.739c-0.914,0.513-1.856,1.017-2.804,1.52c-0.615,0.327-1.247,0.649-1.876,0.971    c-9.268-10.643-14.636-23.564-15.566-37.55C426.725,282.179,437.914,260.043,457.558,246.755z M389.634,208.452    c0.167,0.104,0.335,0.203,0.501,0.308c1.862,1.175,3.701,2.429,5.514,3.768c0.33,0.244,0.657,0.502,0.986,0.751    c1.803,1.368,3.587,2.799,5.337,4.328c0.09,0.079,0.182,0.15,0.272,0.229c1.798,1.581,3.559,3.271,5.298,5.018    c0.336,0.337,0.673,0.671,1.006,1.014c1.676,1.726,3.324,3.527,4.94,5.406c0.114,0.132,0.225,0.27,0.338,0.403    c-17.399,15.542-35.915,25.071-57.989,29.885c-1.585,0.343-3.337,0.107-4.936-0.674c-5.771-2.811-10.837-6.67-15.056-11.472    c-1.62-1.845-2.156-4.272-1.469-6.66c0.713-2.48,2.617-4.401,5.093-5.139C358.24,230.021,375.104,220.887,389.634,208.452z     M385.845,165.35c5.27-3.566,11.667-4.004,16.29-1.122c4.037,2.516,5.818,7.063,5.014,12.802    c-1.403,10.02-3.193,20.338-5.209,30.465c-0.386-0.297-0.774-0.587-1.162-0.877c-0.487-0.365-0.968-0.748-1.459-1.102    c-0.976-0.704-1.966-1.365-2.957-2.026c-0.357-0.238-0.707-0.495-1.066-0.728c-1.356-0.879-2.724-1.72-4.104-2.518    c-0.002-0.001-0.004-0.002-0.006-0.003c-0.002-0.001-0.003-0.002-0.004-0.003c-0.001,0-0.001,0-0.002-0.001    c-11.81-6.88-24.22-10.63-36.928-12.005C364.373,180.398,375.028,172.669,385.845,165.35z M228.994,236.834    c34.265-20.54,75.308-41.389,113.721-41.389c13.676,0,27.019,2.658,39.602,8.901c-13.185,10.778-28.312,18.786-45.08,23.785    c-5.04,1.503-8.917,5.415-10.37,10.466c-1.416,4.924-0.253,10.15,3.11,13.977c4.907,5.583,10.796,10.071,17.503,13.339    c2.193,1.067,4.568,1.614,6.912,1.614c1.05,0,2.094-0.11,3.111-0.333c24.013-5.237,44.038-15.748,62.86-32.937    c11.036,2.391,20.78,5.329,29.104,8.747c-19.61,15.04-30.624,38.407-29.018,62.567c0.983,14.784,6.687,28.975,16.141,40.532    c-26.313,11.888-60.48,19.663-97.731,24.173c6.02-11.149,8.446-21.592,5.317-30.456c-3.012-8.534-11.99-15.654-25.966-20.59    c-29.337-10.362-74.236-9.576-92.392,1.614c-12.281,7.57-21.94,28.678-29.304,52.785c-29.451-1.78-57.194-4.925-80.962-9.069    c2.736-5.588,5.274-11.102,7.586-16.278c1.553-3.481,1.247-7.472-0.822-10.678c-2.08-3.221-5.612-5.154-9.448-5.173l-57.68-0.259    c-0.017,0-0.034,0-0.049,0c-5.545,0-10.22,3.949-11.127,9.407c-0.021,0.129-0.041,0.262-0.062,0.391    c-7.437-4.917-11.407-10.957-10.947-17.104c0.444-5.922,4.984-11.107,11.566-13.208    C88.691,297.569,184.019,263.799,228.994,236.834z M27.676,238.806c3.401-4.059,7.356-6.033,12.085-6.033    c0.049,0,0.099,0.002,0.148,0.002c20.305,0.176,50.207,35.726,62.449,50.778c-23.2,8.45-44.532,15.665-59.806,20.549    C27.782,271.253,21.937,245.656,27.676,238.806z" style="fill:#103f62"/>
      <path d="M289.105 288.468c.179 0 .359-.012.54-.037l25.711-3.558c1.027-.142 1.955-.687 2.579-1.512.626-.827.897-1.868.755-2.893l-3.56-25.711c-.296-2.136-2.258-3.61-4.405-3.334l-25.711 3.56c-1.027.142-1.955.687-2.579 1.512-.626.827-.897 1.868-.755 2.893l3.56 25.71C285.511 287.054 287.185 288.468 289.105 288.468zM307.926 259.698l2.489 17.972-17.972 2.487-2.489-17.97L307.926 259.698zM238.784 299.676c.682.517 1.511.792 2.357.792.179 0 .357-.012.536-.037l25.71-3.56c2.138-.296 3.63-2.269 3.334-4.405l-3.56-25.71c-.296-2.136-2.258-3.612-4.405-3.334l-25.71 3.558c-1.027.142-1.955.687-2.579 1.512-.626.827-.897 1.868-.755 2.893l3.56 25.711C237.414 298.124 237.959 299.052 238.784 299.676zM259.957 271.697l2.489 17.97-17.97 2.489-2.489-17.972L259.957 271.697zM193.684 310.046c.682.517 1.511.792 2.357.792.179 0 .357-.012.536-.037l25.71-3.56c2.138-.296 3.63-2.269 3.334-4.405l-3.56-25.71c-.296-2.138-2.257-3.618-4.405-3.334l-25.71 3.558c-1.027.142-1.955.687-2.579 1.512-.626.827-.897 1.868-.755 2.893l3.56 25.711C192.314 308.494 192.858 309.422 193.684 310.046zM214.857 282.067l2.489 17.97-17.97 2.489-2.489-17.972L214.857 282.067zM147.808 320.535c.682.517 1.511.792 2.357.792.179 0 .357-.012.536-.037l25.71-3.56c2.138-.296 3.63-2.269 3.334-4.405l-3.56-25.71c-.296-2.138-2.271-3.616-4.405-3.334l-25.71 3.558c-1.027.142-1.955.687-2.579 1.512-.626.827-.897 1.868-.755 2.893l3.56 25.711C146.438 318.983 146.983 319.911 147.808 320.535zM168.981 292.556l2.489 17.97-17.97 2.489-2.489-17.972L168.981 292.556zM110.238 195.338h54.736c12.012 0 21.785-9.773 21.785-21.785 0-9.756-6.528-18.225-15.639-20.898-1.527-16.264-15.257-29.033-31.912-29.033-16.415 0-29.99 12.395-31.848 28.336-10.657 1.413-18.907 10.559-18.907 21.596C88.453 185.565 98.226 195.338 110.238 195.338zM110.238 159.58c.066 0 .131-.002.195-.002.076 0 .151.002.23.009 1.074.119 2.188-.264 3.008-1.004.818-.742 1.285-1.807 1.285-2.91 0-13.367 10.88-24.24 24.252-24.24 13.367 0 24.24 10.873 24.24 24.405 0 1.959 1.451 3.616 3.395 3.873 6.9.911 12.103 6.862 12.103 13.841 0 7.704-6.268 13.972-13.972 13.972h-54.736c-7.704 0-13.972-6.268-13.972-13.972S102.534 159.58 110.238 159.58zM264.605 109.039h54.736c12.012 0 21.785-9.773 21.785-21.785 0-9.756-6.528-18.225-15.637-20.898-1.527-16.263-15.257-29.033-31.912-29.033-16.417 0-29.991 12.395-31.85 28.336-10.657 1.413-18.907 10.559-18.907 21.596C242.82 99.265 252.593 109.039 264.605 109.039zM264.605 73.281c.067 0 .133-.002.197-.002.075 0 .15.002.226.009 1.091.119 2.19-.262 3.011-1.004.818-.74 1.285-1.807 1.285-2.91 0-13.367 10.88-24.24 24.254-24.24 13.367 0 24.24 10.873 24.24 24.405 0 1.959 1.451 3.616 3.395 3.873 6.898.911 12.102 6.862 12.102 13.841 0 7.704-6.268 13.972-13.972 13.972h-54.736c-7.704 0-13.972-6.268-13.972-13.972S256.901 73.281 264.605 73.281zM227.38 181.773c.365 0 .735-.052 1.103-.16 16.052-4.716 24.521-11.566 28.961-17.822 8.144-.757 16.734-3.134 24.493-5.281 6.876-1.903 13.37-3.7 18.163-4.021 2.151-.143 3.781-2.005 3.636-4.158-.142-2.153-2.028-3.764-4.158-3.636-5.586.372-12.454 2.274-19.725 4.285-6.044 1.674-12.387 3.429-18.384 4.433.452-1.662.652-3.114.729-4.26.61-8.949-4.361-17.621-12.09-21.088-6.496-2.916-13.49-1.48-18.704 3.841-5.133 5.235-5.35 14.377-.493 20.811 4.153 5.504 9.808 8.121 16.19 8.983-4.816 4.216-11.88 7.791-20.822 10.419-2.069.607-3.255 2.779-2.646 4.849C224.134 180.668 225.691 181.773 227.38 181.773zM237.147 150.01c-2.225-2.948-2.821-7.925-.163-10.637 2.237-2.281 4.488-2.966 6.384-2.966 1.437 0 2.672.394 3.543.784 4.054 1.819 7.93 7.016 7.494 13.429-.131 1.933-.629 3.815-1.474 5.629C246.389 156.301 240.704 154.722 237.147 150.01z" style="fill:#103f62"/>
    </g>
  </g>
</svg>