<svg xmlns="http://www.w3.org/2000/svg" id="delivery-box" viewBox="2.31 2 59.38 60">
  <g>
    <polygon fill="#ffc350" points="32 32.5 32 62 2.31 46.28 2.31 17.59 32 32.5"/>
    <polygon fill="#ffd164" points="61.69 17.59 61.69 46.28 32 62 32 32.5 61.69 17.59"/>
    <polygon fill="#ffe17d" points="61.69 17.59 32 32.5 2.31 17.59 32 2 61.69 17.59"/>
    <path fill="#e6646e" d="M51.32,22.8V36.24a.69.69,0,0,1-.34.6l-6,3.47a.69.69,0,0,1-1-.57l-.49-13Z"/>
    <polygon fill="#ff8087" points="51.32 22.8 43.45 26.75 14.97 11.06 22.57 6.95 51.32 22.8"/>
    <path fill="#fff6d8" d="M22.27,35.57a.49.49,0,0,1-.23-.06L11.82,30.38a.5.5,0,0,1,.45-.89l10.22,5.13a.49.49,0,0,1,.22.67A.5.5,0,0,1,22.27,35.57Z"/>
  </g>
</svg>