<svg xmlns="http://www.w3.org/2000/svg" id="music" viewBox="0 26.36 579.26 459.28">
  <circle cx="349.62" cy="256" r="162.38" style="fill:#4f93f0" transform="rotate(-45 349.62 256.003)"/>
  <path d="M488.31,340.48c-67.14-30.63-92.55-142.94-36.94-211.02-27.84-22.42-63.23-35.84-101.76-35.84-89.68,0-162.38,72.7-162.38,162.38s72.7,162.38,162.38,162.38c58.73,0,110.18-31.18,138.69-77.9Z" style="fill:#2f72ea"/>
  <circle cx="349.62" cy="256" r="65.84" style="fill:#6edaf6" transform="rotate(-76.72 349.603 256.002)"/>
  <rect width="361.56" height="361.56" y="75.22" rx="44.91" ry="44.91" style="fill:#f7e969"/>
  <path d="M44.91,75.22C20.11,75.22,0,95.33,0,120.13v271.74c0,24.8,20.11,44.91,44.91,44.91h170.04c-119.32-64.46-112.42-256.52-82.67-361.56H44.91Z" style="fill:#f5c956"/>
  <path d="M0,145.77h162.76c13.51,0,24.48,10.97,24.48,24.48v61.37c0,13.51-10.97,24.48-24.48,24.48H0v-110.33h0Z" style="fill:#4f93f0"/>
  <path d="M118.15,145.77H0v110.33h115.94c-3.65-37.25-2.26-75.38,2.21-110.33Z" style="fill:#2f72ea"/>
  <g>
    <polygon points="221.92 269.46 231.18 249.97 257.19 244.8 257.19 351.99 221.92 351.99 221.92 269.46" style="fill:#6edaf6"/>
    <ellipse cx="210.96" cy="351.99" rx="46.23" ry="38.79" style="fill:#4f93f0"/>
    <path d="M285.75,268.33c-21.87-4.75-42.44-13.13-63.83,1.14v-33.83c0-13.9,11.08-25.29,24.98-25.64,21.04-.52,42.11,11.24,65.28,9.12,8.67-.79,16.21,5.86,16.21,14.57v.42c0,22.41-20.73,38.98-42.63,34.23Z" style="fill:#4f93f0"/>
  </g>
  <g>
    <circle cx="32.95" cy="194.09" r="10.24" style="fill:#2f445e"/>
    <circle cx="152.24" cy="194.09" r="10.24" style="fill:#2f445e"/>
    <path d="M92.6,224.01c-9.13,0-17.84-3.27-25.18-9.44-2.54-2.13-2.86-5.92-.73-8.45,2.13-2.54,5.92-2.86,8.45-.73,5.15,4.34,11.19,6.63,17.46,6.63s12.3-2.29,17.46-6.63c2.54-2.13,6.32-1.81,8.45.73,2.13,2.54,1.81,6.32-.73,8.45-7.34,6.18-16.05,9.44-25.18,9.44Z" style="fill:#2f445e"/>
  </g>
</svg>