<svg xmlns="http://www.w3.org/2000/svg" id="packing-bag" viewBox="0.54 0 576.77 449.08">
  <g>
    <g>
      <path fill="#ffdda8" stroke="#000" stroke-miterlimit="10" stroke-width="2" d="M274.13,110.52l-199.08,115L278.5,343l199-115,.09,0Z"/>
      <path fill="#dda866" stroke="#000" stroke-miterlimit="10" stroke-width="2" d="M274.12,113.62,80.45,225.47l94.23,54L278.51,339,378,282l94.23-54Z"/>
      <path fill="#aa6838" stroke="#000" stroke-miterlimit="10" stroke-width="2" d="M274.12,113.62V222.05l4.39,117L378,282l94.23-54Z"/>
      <path fill="#c68b51" stroke="#000" stroke-miterlimit="10" stroke-width="2" d="M274.12,222.05l-99.44,57.42L278.51,339,378,282Z"/>
      <polygon fill="#bc7c46" stroke="#000" stroke-miterlimit="10" stroke-width="2" points="278.5 342.93 278.5 448.08 191.16 398.06 155.79 377.82 75.05 331.55 75.05 225.47 278.5 342.93"/>
      <path fill="#dda866" stroke="#000" stroke-miterlimit="10" stroke-width="2" d="M278.51,343V448.07l199-114.19V228Z"/>
      <polygon fill="#bc7c46" stroke="#000" stroke-miterlimit="10" stroke-width="2" points="80.45 225.47 75.04 225.47 1.54 137.79 1.54 133.35 14.1 126.28 1.55 133.44 80.45 225.47"/>
      <polygon fill="#edc893" stroke="#000" stroke-miterlimit="10" stroke-width="2" points="274.17 113.84 80.45 225.47 1.55 133.44 14.1 126.28 198.94 20.89 274.12 110.52 274.17 113.84"/>
      <polygon fill="#bc7c46" stroke="#000" stroke-miterlimit="10" stroke-width="2" points="576.31 250.28 576.31 253.66 377.06 367.2 276.69 342.69 276.69 339.3 377.06 363.81 576.31 250.28"/>
      <polygon fill="#edc893" stroke="#000" stroke-miterlimit="10" stroke-width="2" points="576.31 250.28 377.06 363.81 276.69 339.3 474.1 226.74 576.31 250.28"/>
      <path fill="#6aa0e2" d="M381.81,84.6c.95-36-5.21-42.47-41.18-43.41C376.6,42.13,383.09,36,384,0c-1,36,5.2,42.47,41.18,43.41C389.24,42.47,382.76,48.62,381.81,84.6Z"/>
      <path fill="#78a9ef" stroke="#000" stroke-miterlimit="10" d="M425.43,174.7c.95-36-5.21-42.47-41.18-43.41,36,.94,42.46-5.21,43.41-41.19-1,36,5.2,42.47,41.18,43.41C432.86,132.57,426.38,138.72,425.43,174.7Z"/>
      <path fill="#ffe773" stroke="#000" stroke-miterlimit="10" d="M453.51,108.63c.95-36-5.21-42.47-41.18-43.41,36,.94,42.46-5.21,43.41-41.19-.95,36,5.21,42.47,41.18,43.41C461,66.5,454.46,72.65,453.51,108.63Z"/>
      <path fill="#ec1c24" stroke="#000" stroke-miterlimit="10" stroke-width="2" d="M354.34,79.44H202.53l-19,194H373.32ZM246.48,105.72a6,6,0,1,1,6-6A6,6,0,0,1,246.48,105.72Zm63.91,0a6,6,0,1,1,6-6A6,6,0,0,1,310.39,105.72Z"/>
      <path fill="#fff" stroke="#000" stroke-miterlimit="10" stroke-width="2" d="M310.39 103.67c-2.2 0-4-1.45-4-3.24 0-51.83-4.68-83.95-28-83.95-23.65 0-28 28.27-28 84 0 1.79-1.78 3.24-4 3.24s-4-1.45-4-3.24c0-60 5.56-90.43 35.93-90.43 33.19 0 35.93 42.77 35.93 90.43C314.36 102.22 312.59 103.67 310.39 103.67zM311.5 192.89a22 22 0 00-5.43-7.33 31.64 31.64 0 00-8.28-5.25 55.26 55.26 0 00-10.48-3.41l-4.26-1V154.65a15.14 15.14 0 017.16 2.64 10.82 10.82 0 014.39 8h17.69a24.52 24.52 0 00-4.18-13.73 26.9 26.9 0 00-11.31-9.25 38.58 38.58 0 00-13.75-3.23v-9.82h-7v9.86a39.88 39.88 0 00-13.3 3.19A28.29 28.29 0 00251 151.58a22.77 22.77 0 00-4.24 13.86q0 9.67 6.35 15.38t17.43 8.4l5.54 1.39v22.46a21 21 0 01-5.22-1.28 13.58 13.58 0 01-6-4.39 13.11 13.11 0 01-2.53-7.31H244.43q.19 9.42 4.58 15.8a26.71 26.71 0 0012.19 9.61 44.92 44.92 0 0014.85 3.14v9.77h7v-9.76a43.52 43.52 0 0014.77-3.13 25.93 25.93 0 0011.59-9.08 24.11 24.11 0 004.07-13.88A23.44 23.44 0 00311.5 192.89zm-37.41-19.42a21.49 21.49 0 01-4.43-2.17 9.67 9.67 0 01-3-3 7.09 7.09 0 01-1-4.09 8.26 8.26 0 011.64-5 10.76 10.76 0 014.76-3.48 16.83 16.83 0 014-1v19.46C275.38 173.92 274.73 173.7 274.09 173.47zm18.85 34.64a12.58 12.58 0 01-5.4 3.79 19.42 19.42 0 01-4.49 1.13V192.41a43.84 43.84 0 015.05 1.76 13.43 13.43 0 015 3.41 7.29 7.29 0 011.72 4.94A8.77 8.77 0 01292.94 208.11z"/>
    </g>
  </g>
</svg>